<?xml version="1.0" encoding="utf-8" standalone="no"?>
<!DOCTYPE svg PUBLIC "-//W3C//DTD SVG 1.1//EN"
  "http://www.w3.org/Graphics/SVG/1.1/DTD/svg11.dtd">
<!-- Created with matplotlib (https://matplotlib.org/) -->
<svg height="345.6pt" version="1.1" viewBox="0 0 460.8 345.6" width="460.8pt" xmlns="http://www.w3.org/2000/svg" xmlns:xlink="http://www.w3.org/1999/xlink">
 <metadata>
  <rdf:RDF xmlns:cc="http://creativecommons.org/ns#" xmlns:dc="http://purl.org/dc/elements/1.1/" xmlns:rdf="http://www.w3.org/1999/02/22-rdf-syntax-ns#">
   <cc:Work>
    <dc:type rdf:resource="http://purl.org/dc/dcmitype/StillImage"/>
    <dc:date>2021-01-11T20:55:56.256717</dc:date>
    <dc:format>image/svg+xml</dc:format>
    <dc:creator>
     <cc:Agent>
      <dc:title>Matplotlib v3.3.3, https://matplotlib.org/</dc:title>
     </cc:Agent>
    </dc:creator>
   </cc:Work>
  </rdf:RDF>
 </metadata>
 <defs>
  <style type="text/css">*{stroke-linecap:butt;stroke-linejoin:round;}</style>
 </defs>
 <g id="figure_1">
  <g id="patch_1">
   <path d="M 0 345.6 
L 460.8 345.6 
L 460.8 0 
L 0 0 
z
" style="fill:#ffffff;"/>
  </g>
  <g id="axes_1">
   <g id="patch_2">
    <path d="M 57.6 307.584 
L 414.72 307.584 
L 414.72 41.472 
L 57.6 41.472 
z
" style="fill:#ffffff;"/>
   </g>
   <g id="matplotlib.axis_1">
    <g id="xtick_1">
     <g id="line2d_1">
      <path clip-path="url(#p5a0558ecc3)" d="M 73.832727 307.584 
L 73.832727 41.472 
" style="fill:none;stroke:#b0b0b0;stroke-linecap:square;stroke-width:0.8;"/>
     </g>
     <g id="line2d_2">
      <defs>
       <path d="M 0 0 
L 0 3.5 
" id="mde10624429" style="stroke:#000000;stroke-width:0.8;"/>
      </defs>
      <g>
       <use style="stroke:#000000;stroke-width:0.8;" x="73.832727" xlink:href="#mde10624429" y="307.584"/>
      </g>
     </g>
     <g id="text_1">
      <!-- 0.0 -->
      <g transform="translate(65.881165 322.182437)scale(0.1 -0.1)">
       <defs>
        <path d="M 31.78125 66.40625 
Q 24.171875 66.40625 20.328125 58.90625 
Q 16.5 51.421875 16.5 36.375 
Q 16.5 21.390625 20.328125 13.890625 
Q 24.171875 6.390625 31.78125 6.390625 
Q 39.453125 6.390625 43.28125 13.890625 
Q 47.125 21.390625 47.125 36.375 
Q 47.125 51.421875 43.28125 58.90625 
Q 39.453125 66.40625 31.78125 66.40625 
z
M 31.78125 74.21875 
Q 44.046875 74.21875 50.515625 64.515625 
Q 56.984375 54.828125 56.984375 36.375 
Q 56.984375 17.96875 50.515625 8.265625 
Q 44.046875 -1.421875 31.78125 -1.421875 
Q 19.53125 -1.421875 13.0625 8.265625 
Q 6.59375 17.96875 6.59375 36.375 
Q 6.59375 54.828125 13.0625 64.515625 
Q 19.53125 74.21875 31.78125 74.21875 
z
" id="DejaVuSans-48"/>
        <path d="M 10.6875 12.40625 
L 21 12.40625 
L 21 0 
L 10.6875 0 
z
" id="DejaVuSans-46"/>
       </defs>
       <use xlink:href="#DejaVuSans-48"/>
       <use x="63.623047" xlink:href="#DejaVuSans-46"/>
       <use x="95.410156" xlink:href="#DejaVuSans-48"/>
      </g>
     </g>
    </g>
    <g id="xtick_2">
     <g id="line2d_3">
      <path clip-path="url(#p5a0558ecc3)" d="M 138.763636 307.584 
L 138.763636 41.472 
" style="fill:none;stroke:#b0b0b0;stroke-linecap:square;stroke-width:0.8;"/>
     </g>
     <g id="line2d_4">
      <g>
       <use style="stroke:#000000;stroke-width:0.8;" x="138.763636" xlink:href="#mde10624429" y="307.584"/>
      </g>
     </g>
     <g id="text_2">
      <!-- 0.2 -->
      <g transform="translate(130.812074 322.182437)scale(0.1 -0.1)">
       <defs>
        <path d="M 19.1875 8.296875 
L 53.609375 8.296875 
L 53.609375 0 
L 7.328125 0 
L 7.328125 8.296875 
Q 12.9375 14.109375 22.625 23.890625 
Q 32.328125 33.6875 34.8125 36.53125 
Q 39.546875 41.84375 41.421875 45.53125 
Q 43.3125 49.21875 43.3125 52.78125 
Q 43.3125 58.59375 39.234375 62.25 
Q 35.15625 65.921875 28.609375 65.921875 
Q 23.96875 65.921875 18.8125 64.3125 
Q 13.671875 62.703125 7.8125 59.421875 
L 7.8125 69.390625 
Q 13.765625 71.78125 18.9375 73 
Q 24.125 74.21875 28.421875 74.21875 
Q 39.75 74.21875 46.484375 68.546875 
Q 53.21875 62.890625 53.21875 53.421875 
Q 53.21875 48.921875 51.53125 44.890625 
Q 49.859375 40.875 45.40625 35.40625 
Q 44.1875 33.984375 37.640625 27.21875 
Q 31.109375 20.453125 19.1875 8.296875 
z
" id="DejaVuSans-50"/>
       </defs>
       <use xlink:href="#DejaVuSans-48"/>
       <use x="63.623047" xlink:href="#DejaVuSans-46"/>
       <use x="95.410156" xlink:href="#DejaVuSans-50"/>
      </g>
     </g>
    </g>
    <g id="xtick_3">
     <g id="line2d_5">
      <path clip-path="url(#p5a0558ecc3)" d="M 203.694545 307.584 
L 203.694545 41.472 
" style="fill:none;stroke:#b0b0b0;stroke-linecap:square;stroke-width:0.8;"/>
     </g>
     <g id="line2d_6">
      <g>
       <use style="stroke:#000000;stroke-width:0.8;" x="203.694545" xlink:href="#mde10624429" y="307.584"/>
      </g>
     </g>
     <g id="text_3">
      <!-- 0.4 -->
      <g transform="translate(195.742983 322.182437)scale(0.1 -0.1)">
       <defs>
        <path d="M 37.796875 64.3125 
L 12.890625 25.390625 
L 37.796875 25.390625 
z
M 35.203125 72.90625 
L 47.609375 72.90625 
L 47.609375 25.390625 
L 58.015625 25.390625 
L 58.015625 17.1875 
L 47.609375 17.1875 
L 47.609375 0 
L 37.796875 0 
L 37.796875 17.1875 
L 4.890625 17.1875 
L 4.890625 26.703125 
z
" id="DejaVuSans-52"/>
       </defs>
       <use xlink:href="#DejaVuSans-48"/>
       <use x="63.623047" xlink:href="#DejaVuSans-46"/>
       <use x="95.410156" xlink:href="#DejaVuSans-52"/>
      </g>
     </g>
    </g>
    <g id="xtick_4">
     <g id="line2d_7">
      <path clip-path="url(#p5a0558ecc3)" d="M 268.625455 307.584 
L 268.625455 41.472 
" style="fill:none;stroke:#b0b0b0;stroke-linecap:square;stroke-width:0.8;"/>
     </g>
     <g id="line2d_8">
      <g>
       <use style="stroke:#000000;stroke-width:0.8;" x="268.625455" xlink:href="#mde10624429" y="307.584"/>
      </g>
     </g>
     <g id="text_4">
      <!-- 0.6 -->
      <g transform="translate(260.673892 322.182437)scale(0.1 -0.1)">
       <defs>
        <path d="M 33.015625 40.375 
Q 26.375 40.375 22.484375 35.828125 
Q 18.609375 31.296875 18.609375 23.390625 
Q 18.609375 15.53125 22.484375 10.953125 
Q 26.375 6.390625 33.015625 6.390625 
Q 39.65625 6.390625 43.53125 10.953125 
Q 47.40625 15.53125 47.40625 23.390625 
Q 47.40625 31.296875 43.53125 35.828125 
Q 39.65625 40.375 33.015625 40.375 
z
M 52.59375 71.296875 
L 52.59375 62.3125 
Q 48.875 64.0625 45.09375 64.984375 
Q 41.3125 65.921875 37.59375 65.921875 
Q 27.828125 65.921875 22.671875 59.328125 
Q 17.53125 52.734375 16.796875 39.40625 
Q 19.671875 43.65625 24.015625 45.921875 
Q 28.375 48.1875 33.59375 48.1875 
Q 44.578125 48.1875 50.953125 41.515625 
Q 57.328125 34.859375 57.328125 23.390625 
Q 57.328125 12.15625 50.6875 5.359375 
Q 44.046875 -1.421875 33.015625 -1.421875 
Q 20.359375 -1.421875 13.671875 8.265625 
Q 6.984375 17.96875 6.984375 36.375 
Q 6.984375 53.65625 15.1875 63.9375 
Q 23.390625 74.21875 37.203125 74.21875 
Q 40.921875 74.21875 44.703125 73.484375 
Q 48.484375 72.75 52.59375 71.296875 
z
" id="DejaVuSans-54"/>
       </defs>
       <use xlink:href="#DejaVuSans-48"/>
       <use x="63.623047" xlink:href="#DejaVuSans-46"/>
       <use x="95.410156" xlink:href="#DejaVuSans-54"/>
      </g>
     </g>
    </g>
    <g id="xtick_5">
     <g id="line2d_9">
      <path clip-path="url(#p5a0558ecc3)" d="M 333.556364 307.584 
L 333.556364 41.472 
" style="fill:none;stroke:#b0b0b0;stroke-linecap:square;stroke-width:0.8;"/>
     </g>
     <g id="line2d_10">
      <g>
       <use style="stroke:#000000;stroke-width:0.8;" x="333.556364" xlink:href="#mde10624429" y="307.584"/>
      </g>
     </g>
     <g id="text_5">
      <!-- 0.8 -->
      <g transform="translate(325.604801 322.182437)scale(0.1 -0.1)">
       <defs>
        <path d="M 31.78125 34.625 
Q 24.75 34.625 20.71875 30.859375 
Q 16.703125 27.09375 16.703125 20.515625 
Q 16.703125 13.921875 20.71875 10.15625 
Q 24.75 6.390625 31.78125 6.390625 
Q 38.8125 6.390625 42.859375 10.171875 
Q 46.921875 13.96875 46.921875 20.515625 
Q 46.921875 27.09375 42.890625 30.859375 
Q 38.875 34.625 31.78125 34.625 
z
M 21.921875 38.8125 
Q 15.578125 40.375 12.03125 44.71875 
Q 8.5 49.078125 8.5 55.328125 
Q 8.5 64.0625 14.71875 69.140625 
Q 20.953125 74.21875 31.78125 74.21875 
Q 42.671875 74.21875 48.875 69.140625 
Q 55.078125 64.0625 55.078125 55.328125 
Q 55.078125 49.078125 51.53125 44.71875 
Q 48 40.375 41.703125 38.8125 
Q 48.828125 37.15625 52.796875 32.3125 
Q 56.78125 27.484375 56.78125 20.515625 
Q 56.78125 9.90625 50.3125 4.234375 
Q 43.84375 -1.421875 31.78125 -1.421875 
Q 19.734375 -1.421875 13.25 4.234375 
Q 6.78125 9.90625 6.78125 20.515625 
Q 6.78125 27.484375 10.78125 32.3125 
Q 14.796875 37.15625 21.921875 38.8125 
z
M 18.3125 54.390625 
Q 18.3125 48.734375 21.84375 45.5625 
Q 25.390625 42.390625 31.78125 42.390625 
Q 38.140625 42.390625 41.71875 45.5625 
Q 45.3125 48.734375 45.3125 54.390625 
Q 45.3125 60.0625 41.71875 63.234375 
Q 38.140625 66.40625 31.78125 66.40625 
Q 25.390625 66.40625 21.84375 63.234375 
Q 18.3125 60.0625 18.3125 54.390625 
z
" id="DejaVuSans-56"/>
       </defs>
       <use xlink:href="#DejaVuSans-48"/>
       <use x="63.623047" xlink:href="#DejaVuSans-46"/>
       <use x="95.410156" xlink:href="#DejaVuSans-56"/>
      </g>
     </g>
    </g>
    <g id="xtick_6">
     <g id="line2d_11">
      <path clip-path="url(#p5a0558ecc3)" d="M 398.487273 307.584 
L 398.487273 41.472 
" style="fill:none;stroke:#b0b0b0;stroke-linecap:square;stroke-width:0.8;"/>
     </g>
     <g id="line2d_12">
      <g>
       <use style="stroke:#000000;stroke-width:0.8;" x="398.487273" xlink:href="#mde10624429" y="307.584"/>
      </g>
     </g>
     <g id="text_6">
      <!-- 1.0 -->
      <g transform="translate(390.53571 322.182437)scale(0.1 -0.1)">
       <defs>
        <path d="M 12.40625 8.296875 
L 28.515625 8.296875 
L 28.515625 63.921875 
L 10.984375 60.40625 
L 10.984375 69.390625 
L 28.421875 72.90625 
L 38.28125 72.90625 
L 38.28125 8.296875 
L 54.390625 8.296875 
L 54.390625 0 
L 12.40625 0 
z
" id="DejaVuSans-49"/>
       </defs>
       <use xlink:href="#DejaVuSans-49"/>
       <use x="63.623047" xlink:href="#DejaVuSans-46"/>
       <use x="95.410156" xlink:href="#DejaVuSans-48"/>
      </g>
     </g>
    </g>
    <g id="text_7">
     <!-- Time (s) -->
     <g transform="translate(215.831094 335.860562)scale(0.1 -0.1)">
      <defs>
       <path d="M -0.296875 72.90625 
L 61.375 72.90625 
L 61.375 64.59375 
L 35.5 64.59375 
L 35.5 0 
L 25.59375 0 
L 25.59375 64.59375 
L -0.296875 64.59375 
z
" id="DejaVuSans-84"/>
       <path d="M 9.421875 54.6875 
L 18.40625 54.6875 
L 18.40625 0 
L 9.421875 0 
z
M 9.421875 75.984375 
L 18.40625 75.984375 
L 18.40625 64.59375 
L 9.421875 64.59375 
z
" id="DejaVuSans-105"/>
       <path d="M 52 44.1875 
Q 55.375 50.25 60.0625 53.125 
Q 64.75 56 71.09375 56 
Q 79.640625 56 84.28125 50.015625 
Q 88.921875 44.046875 88.921875 33.015625 
L 88.921875 0 
L 79.890625 0 
L 79.890625 32.71875 
Q 79.890625 40.578125 77.09375 44.375 
Q 74.3125 48.1875 68.609375 48.1875 
Q 61.625 48.1875 57.5625 43.546875 
Q 53.515625 38.921875 53.515625 30.90625 
L 53.515625 0 
L 44.484375 0 
L 44.484375 32.71875 
Q 44.484375 40.625 41.703125 44.40625 
Q 38.921875 48.1875 33.109375 48.1875 
Q 26.21875 48.1875 22.15625 43.53125 
Q 18.109375 38.875 18.109375 30.90625 
L 18.109375 0 
L 9.078125 0 
L 9.078125 54.6875 
L 18.109375 54.6875 
L 18.109375 46.1875 
Q 21.1875 51.21875 25.484375 53.609375 
Q 29.78125 56 35.6875 56 
Q 41.65625 56 45.828125 52.96875 
Q 50 49.953125 52 44.1875 
z
" id="DejaVuSans-109"/>
       <path d="M 56.203125 29.59375 
L 56.203125 25.203125 
L 14.890625 25.203125 
Q 15.484375 15.921875 20.484375 11.0625 
Q 25.484375 6.203125 34.421875 6.203125 
Q 39.59375 6.203125 44.453125 7.46875 
Q 49.3125 8.734375 54.109375 11.28125 
L 54.109375 2.78125 
Q 49.265625 0.734375 44.1875 -0.34375 
Q 39.109375 -1.421875 33.890625 -1.421875 
Q 20.796875 -1.421875 13.15625 6.1875 
Q 5.515625 13.8125 5.515625 26.8125 
Q 5.515625 40.234375 12.765625 48.109375 
Q 20.015625 56 32.328125 56 
Q 43.359375 56 49.78125 48.890625 
Q 56.203125 41.796875 56.203125 29.59375 
z
M 47.21875 32.234375 
Q 47.125 39.59375 43.09375 43.984375 
Q 39.0625 48.390625 32.421875 48.390625 
Q 24.90625 48.390625 20.390625 44.140625 
Q 15.875 39.890625 15.1875 32.171875 
z
" id="DejaVuSans-101"/>
       <path id="DejaVuSans-32"/>
       <path d="M 31 75.875 
Q 24.46875 64.65625 21.28125 53.65625 
Q 18.109375 42.671875 18.109375 31.390625 
Q 18.109375 20.125 21.3125 9.0625 
Q 24.515625 -2 31 -13.1875 
L 23.1875 -13.1875 
Q 15.875 -1.703125 12.234375 9.375 
Q 8.59375 20.453125 8.59375 31.390625 
Q 8.59375 42.28125 12.203125 53.3125 
Q 15.828125 64.359375 23.1875 75.875 
z
" id="DejaVuSans-40"/>
       <path d="M 44.28125 53.078125 
L 44.28125 44.578125 
Q 40.484375 46.53125 36.375 47.5 
Q 32.28125 48.484375 27.875 48.484375 
Q 21.1875 48.484375 17.84375 46.4375 
Q 14.5 44.390625 14.5 40.28125 
Q 14.5 37.15625 16.890625 35.375 
Q 19.28125 33.59375 26.515625 31.984375 
L 29.59375 31.296875 
Q 39.15625 29.25 43.1875 25.515625 
Q 47.21875 21.78125 47.21875 15.09375 
Q 47.21875 7.46875 41.1875 3.015625 
Q 35.15625 -1.421875 24.609375 -1.421875 
Q 20.21875 -1.421875 15.453125 -0.5625 
Q 10.6875 0.296875 5.421875 2 
L 5.421875 11.28125 
Q 10.40625 8.6875 15.234375 7.390625 
Q 20.0625 6.109375 24.8125 6.109375 
Q 31.15625 6.109375 34.5625 8.28125 
Q 37.984375 10.453125 37.984375 14.40625 
Q 37.984375 18.0625 35.515625 20.015625 
Q 33.0625 21.96875 24.703125 23.78125 
L 21.578125 24.515625 
Q 13.234375 26.265625 9.515625 29.90625 
Q 5.8125 33.546875 5.8125 39.890625 
Q 5.8125 47.609375 11.28125 51.796875 
Q 16.75 56 26.8125 56 
Q 31.78125 56 36.171875 55.265625 
Q 40.578125 54.546875 44.28125 53.078125 
z
" id="DejaVuSans-115"/>
       <path d="M 8.015625 75.875 
L 15.828125 75.875 
Q 23.140625 64.359375 26.78125 53.3125 
Q 30.421875 42.28125 30.421875 31.390625 
Q 30.421875 20.453125 26.78125 9.375 
Q 23.140625 -1.703125 15.828125 -13.1875 
L 8.015625 -13.1875 
Q 14.5 -2 17.703125 9.0625 
Q 20.90625 20.125 20.90625 31.390625 
Q 20.90625 42.671875 17.703125 53.65625 
Q 14.5 64.65625 8.015625 75.875 
z
" id="DejaVuSans-41"/>
      </defs>
      <use xlink:href="#DejaVuSans-84"/>
      <use x="57.958984" xlink:href="#DejaVuSans-105"/>
      <use x="85.742188" xlink:href="#DejaVuSans-109"/>
      <use x="183.154297" xlink:href="#DejaVuSans-101"/>
      <use x="244.677734" xlink:href="#DejaVuSans-32"/>
      <use x="276.464844" xlink:href="#DejaVuSans-40"/>
      <use x="315.478516" xlink:href="#DejaVuSans-115"/>
      <use x="367.578125" xlink:href="#DejaVuSans-41"/>
     </g>
    </g>
   </g>
   <g id="matplotlib.axis_2">
    <g id="ytick_1">
     <g id="line2d_13">
      <path clip-path="url(#p5a0558ecc3)" d="M 57.6 273.333115 
L 414.72 273.333115 
" style="fill:none;stroke:#b0b0b0;stroke-linecap:square;stroke-width:0.8;"/>
     </g>
     <g id="line2d_14">
      <defs>
       <path d="M 0 0 
L -3.5 0 
" id="ma8ec71881b" style="stroke:#000000;stroke-width:0.8;"/>
      </defs>
      <g>
       <use style="stroke:#000000;stroke-width:0.8;" x="57.6" xlink:href="#ma8ec71881b" y="273.333115"/>
      </g>
     </g>
     <g id="text_8">
      <!-- −0.01 -->
      <g transform="translate(19.954687 277.132334)scale(0.1 -0.1)">
       <defs>
        <path d="M 10.59375 35.5 
L 73.1875 35.5 
L 73.1875 27.203125 
L 10.59375 27.203125 
z
" id="DejaVuSans-8722"/>
       </defs>
       <use xlink:href="#DejaVuSans-8722"/>
       <use x="83.789062" xlink:href="#DejaVuSans-48"/>
       <use x="147.412109" xlink:href="#DejaVuSans-46"/>
       <use x="179.199219" xlink:href="#DejaVuSans-48"/>
       <use x="242.822266" xlink:href="#DejaVuSans-49"/>
      </g>
     </g>
    </g>
    <g id="ytick_2">
     <g id="line2d_15">
      <path clip-path="url(#p5a0558ecc3)" d="M 57.6 224.496423 
L 414.72 224.496423 
" style="fill:none;stroke:#b0b0b0;stroke-linecap:square;stroke-width:0.8;"/>
     </g>
     <g id="line2d_16">
      <g>
       <use style="stroke:#000000;stroke-width:0.8;" x="57.6" xlink:href="#ma8ec71881b" y="224.496423"/>
      </g>
     </g>
     <g id="text_9">
      <!-- 0.00 -->
      <g transform="translate(28.334375 228.295642)scale(0.1 -0.1)">
       <use xlink:href="#DejaVuSans-48"/>
       <use x="63.623047" xlink:href="#DejaVuSans-46"/>
       <use x="95.410156" xlink:href="#DejaVuSans-48"/>
       <use x="159.033203" xlink:href="#DejaVuSans-48"/>
      </g>
     </g>
    </g>
    <g id="ytick_3">
     <g id="line2d_17">
      <path clip-path="url(#p5a0558ecc3)" d="M 57.6 175.659731 
L 414.72 175.659731 
" style="fill:none;stroke:#b0b0b0;stroke-linecap:square;stroke-width:0.8;"/>
     </g>
     <g id="line2d_18">
      <g>
       <use style="stroke:#000000;stroke-width:0.8;" x="57.6" xlink:href="#ma8ec71881b" y="175.659731"/>
      </g>
     </g>
     <g id="text_10">
      <!-- 0.01 -->
      <g transform="translate(28.334375 179.458949)scale(0.1 -0.1)">
       <use xlink:href="#DejaVuSans-48"/>
       <use x="63.623047" xlink:href="#DejaVuSans-46"/>
       <use x="95.410156" xlink:href="#DejaVuSans-48"/>
       <use x="159.033203" xlink:href="#DejaVuSans-49"/>
      </g>
     </g>
    </g>
    <g id="ytick_4">
     <g id="line2d_19">
      <path clip-path="url(#p5a0558ecc3)" d="M 57.6 126.823038 
L 414.72 126.823038 
" style="fill:none;stroke:#b0b0b0;stroke-linecap:square;stroke-width:0.8;"/>
     </g>
     <g id="line2d_20">
      <g>
       <use style="stroke:#000000;stroke-width:0.8;" x="57.6" xlink:href="#ma8ec71881b" y="126.823038"/>
      </g>
     </g>
     <g id="text_11">
      <!-- 0.02 -->
      <g transform="translate(28.334375 130.622257)scale(0.1 -0.1)">
       <use xlink:href="#DejaVuSans-48"/>
       <use x="63.623047" xlink:href="#DejaVuSans-46"/>
       <use x="95.410156" xlink:href="#DejaVuSans-48"/>
       <use x="159.033203" xlink:href="#DejaVuSans-50"/>
      </g>
     </g>
    </g>
    <g id="ytick_5">
     <g id="line2d_21">
      <path clip-path="url(#p5a0558ecc3)" d="M 57.6 77.986346 
L 414.72 77.986346 
" style="fill:none;stroke:#b0b0b0;stroke-linecap:square;stroke-width:0.8;"/>
     </g>
     <g id="line2d_22">
      <g>
       <use style="stroke:#000000;stroke-width:0.8;" x="57.6" xlink:href="#ma8ec71881b" y="77.986346"/>
      </g>
     </g>
     <g id="text_12">
      <!-- 0.03 -->
      <g transform="translate(28.334375 81.785565)scale(0.1 -0.1)">
       <defs>
        <path d="M 40.578125 39.3125 
Q 47.65625 37.796875 51.625 33 
Q 55.609375 28.21875 55.609375 21.1875 
Q 55.609375 10.40625 48.1875 4.484375 
Q 40.765625 -1.421875 27.09375 -1.421875 
Q 22.515625 -1.421875 17.65625 -0.515625 
Q 12.796875 0.390625 7.625 2.203125 
L 7.625 11.71875 
Q 11.71875 9.328125 16.59375 8.109375 
Q 21.484375 6.890625 26.8125 6.890625 
Q 36.078125 6.890625 40.9375 10.546875 
Q 45.796875 14.203125 45.796875 21.1875 
Q 45.796875 27.640625 41.28125 31.265625 
Q 36.765625 34.90625 28.71875 34.90625 
L 20.21875 34.90625 
L 20.21875 43.015625 
L 29.109375 43.015625 
Q 36.375 43.015625 40.234375 45.921875 
Q 44.09375 48.828125 44.09375 54.296875 
Q 44.09375 59.90625 40.109375 62.90625 
Q 36.140625 65.921875 28.71875 65.921875 
Q 24.65625 65.921875 20.015625 65.03125 
Q 15.375 64.15625 9.8125 62.3125 
L 9.8125 71.09375 
Q 15.4375 72.65625 20.34375 73.4375 
Q 25.25 74.21875 29.59375 74.21875 
Q 40.828125 74.21875 47.359375 69.109375 
Q 53.90625 64.015625 53.90625 55.328125 
Q 53.90625 49.265625 50.4375 45.09375 
Q 46.96875 40.921875 40.578125 39.3125 
z
" id="DejaVuSans-51"/>
       </defs>
       <use xlink:href="#DejaVuSans-48"/>
       <use x="63.623047" xlink:href="#DejaVuSans-46"/>
       <use x="95.410156" xlink:href="#DejaVuSans-48"/>
       <use x="159.033203" xlink:href="#DejaVuSans-51"/>
      </g>
     </g>
    </g>
    <g id="text_13">
     <!-- $\overline{x}_1$ (m) -->
     <g transform="translate(13.875 190.278)rotate(-90)scale(0.1 -0.1)">
      <defs>
       <path d="M 60.015625 54.6875 
L 34.90625 27.875 
L 50.296875 0 
L 39.984375 0 
L 28.421875 21.6875 
L 8.296875 0 
L -2.59375 0 
L 24.3125 28.8125 
L 10.015625 54.6875 
L 20.3125 54.6875 
L 30.8125 34.90625 
L 49.125 54.6875 
z
" id="DejaVuSans-Oblique-120"/>
      </defs>
      <use transform="translate(0 1.0625)" xlink:href="#DejaVuSans-Oblique-120"/>
      <use transform="translate(60.136719 -15.84375)scale(0.7)" xlink:href="#DejaVuSans-49"/>
      <use transform="translate(107.407227 0.5625)" xlink:href="#DejaVuSans-32"/>
      <use transform="translate(139.194336 0.5625)" xlink:href="#DejaVuSans-40"/>
      <use transform="translate(178.208008 0.5625)" xlink:href="#DejaVuSans-109"/>
      <use transform="translate(275.620117 0.5625)" xlink:href="#DejaVuSans-41"/>
      <path d="M 0 67.5 
L 0 73.75 
L 59.179688 73.75 
L 59.179688 67.5 
L 0 67.5 
z
"/>
     </g>
    </g>
   </g>
   <g id="line2d_23">
    <path clip-path="url(#p5a0558ecc3)" d="M 73.832727 224.496423 
L 398.487273 224.496423 
L 398.487273 224.496423 
" style="fill:none;stroke:#1f77b4;stroke-linecap:square;stroke-width:1.5;"/>
   </g>
   <g id="line2d_24">
    <path clip-path="url(#p5a0558ecc3)" d="M 73.832727 200.078077 
L 74.806691 200.191576 
L 75.780655 200.523871 
L 76.754618 201.060299 
L 78.053236 202.066213 
L 79.351855 203.369141 
L 80.975127 205.351833 
L 82.923055 208.14031 
L 85.520291 212.314462 
L 92.338036 223.541167 
L 94.610618 226.759366 
L 96.558545 229.140799 
L 98.181818 230.813984 
L 99.805091 232.190102 
L 101.428364 233.259473 
L 103.051636 234.0185 
L 104.350255 234.404737 
L 105.973527 234.62685 
L 107.5968 234.576836 
L 109.220073 234.276671 
L 110.843345 233.754856 
L 112.791273 232.882643 
L 115.063855 231.59821 
L 117.985745 229.673721 
L 125.777455 224.398771 
L 128.374691 222.96285 
L 130.647273 221.93876 
L 132.919855 221.154332 
L 135.192436 220.623427 
L 137.465018 220.340663 
L 139.7376 220.290713 
L 142.010182 220.450912 
L 144.607418 220.848227 
L 147.853964 221.586245 
L 152.723782 222.958892 
L 158.892218 224.656423 
L 162.463418 225.416349 
L 165.709964 225.903229 
L 168.956509 226.1764 
L 172.527709 226.241512 
L 176.423564 226.072976 
L 181.293382 225.617007 
L 196.227491 224.033847 
L 201.421964 223.802236 
L 206.941091 223.79209 
L 213.758836 224.023093 
L 231.939491 224.756797 
L 240.055855 224.785286 
L 252.392727 224.569721 
L 267.002182 224.375471 
L 281.611636 224.436292 
L 306.610036 224.54408 
L 384.851782 224.497465 
L 398.487273 224.492742 
L 398.487273 224.492742 
" style="fill:none;stroke:#ff7f0e;stroke-linecap:square;stroke-width:1.5;"/>
   </g>
   <g id="line2d_25">
    <path clip-path="url(#p5a0558ecc3)" d="M 73.832727 175.659731 
L 74.482036 175.761214 
L 75.131345 176.061208 
L 75.780655 176.551377 
L 76.754618 177.623953 
L 77.728582 179.074026 
L 79.0272 181.539466 
L 80.325818 184.535994 
L 81.949091 188.900462 
L 83.897018 194.823316 
L 86.818909 204.508504 
L 91.364073 219.587818 
L 93.636655 226.371261 
L 95.584582 231.500069 
L 97.207855 235.189333 
L 98.831127 238.306351 
L 100.129745 240.365091 
L 101.428364 242.024443 
L 102.726982 243.283283 
L 103.700945 243.972016 
L 104.674909 244.447633 
L 105.648873 244.715352 
L 106.622836 244.782747 
L 107.5968 244.657708 
L 108.570764 244.352516 
L 109.869382 243.68804 
L 111.168 242.757732 
L 112.791273 241.268809 
L 114.7392 239.096021 
L 117.011782 236.180974 
L 121.556945 229.84138 
L 124.803491 225.498538 
L 127.076073 222.801795 
L 129.024 220.79767 
L 130.971927 219.124103 
L 132.5952 218.006533 
L 134.218473 217.144836 
L 135.841745 216.538577 
L 137.465018 216.183622 
L 139.088291 216.069109 
L 140.711564 216.175078 
L 142.334836 216.481088 
L 144.282764 217.079127 
L 146.555345 218.03427 
L 149.477236 219.549117 
L 160.190836 225.418654 
L 162.788073 226.454033 
L 165.385309 227.230851 
L 167.657891 227.688982 
L 169.930473 227.938848 
L 172.527709 227.986708 
L 175.124945 227.809747 
L 178.046836 227.39295 
L 181.942691 226.590292 
L 193.954909 223.91305 
L 197.526109 223.413304 
L 201.097309 223.123914 
L 204.993164 223.044866 
L 209.213673 223.195791 
L 214.7328 223.641439 
L 228.368291 224.852419 
L 234.212073 225.076066 
L 240.055855 225.074122 
L 247.847564 224.832223 
L 263.755636 224.292346 
L 272.845964 224.257542 
L 287.780073 224.480966 
L 302.389527 224.600661 
L 323.492073 224.484293 
L 346.217891 224.473701 
L 390.370909 224.492937 
L 398.487273 224.489061 
L 398.487273 224.489061 
" style="fill:none;stroke:#2ca02c;stroke-linecap:square;stroke-width:1.5;"/>
   </g>
   <g id="line2d_26">
    <path clip-path="url(#p5a0558ecc3)" d="M 73.832727 151.241385 
L 74.482036 151.393802 
L 75.131345 151.843682 
L 75.780655 152.578658 
L 76.429964 153.585349 
L 77.403927 155.578072 
L 78.377891 158.105148 
L 79.676509 162.21625 
L 80.975127 167.063505 
L 82.5984 173.958061 
L 84.870982 184.719813 
L 92.987345 224.526214 
L 94.935273 232.551889 
L 96.558545 238.421593 
L 98.181818 243.455245 
L 99.480436 246.831233 
L 100.779055 249.613341 
L 102.077673 251.803784 
L 103.051636 253.059667 
L 104.0256 253.988288 
L 104.999564 254.594126 
L 105.973527 254.889771 
L 106.947491 254.890929 
L 107.921455 254.613308 
L 108.895418 254.072612 
L 109.869382 253.285898 
L 111.168 251.888516 
L 112.466618 250.140506 
L 114.089891 247.542574 
L 116.037818 243.954393 
L 118.959709 237.991065 
L 124.154182 227.249208 
L 126.426764 223.055197 
L 128.374691 219.895782 
L 129.997964 217.629729 
L 131.621236 215.722872 
L 133.244509 214.195563 
L 134.543127 213.255346 
L 135.841745 212.560808 
L 137.140364 212.10544 
L 138.438982 211.881863 
L 139.7376 211.87979 
L 141.036218 212.083354 
L 142.659491 212.598804 
L 144.282764 213.370384 
L 146.230691 214.577196 
L 148.503273 216.277552 
L 151.749818 219.028017 
L 157.268945 223.73978 
L 159.866182 225.658947 
L 162.138764 227.078984 
L 164.086691 228.067824 
L 166.034618 228.826566 
L 167.982545 229.356547 
L 169.930473 229.660344 
L 171.8784 229.747421 
L 174.150982 229.601874 
L 176.423564 229.225961 
L 179.0208 228.572151 
L 182.592 227.4113 
L 192.656291 223.968953 
L 195.902836 223.174303 
L 198.824727 222.675981 
L 201.746618 222.392999 
L 204.993164 222.318991 
L 208.564364 222.490659 
L 212.784873 222.945343 
L 220.251927 224.039731 
L 226.420364 224.841546 
L 231.290182 225.24318 
L 235.835345 225.396437 
L 241.029818 225.335156 
L 247.847564 225.000152 
L 262.132364 224.235902 
L 269.274764 224.120203 
L 277.715782 224.221252 
L 301.740218 224.652588 
L 316.025018 224.552055 
L 337.127564 224.43299 
L 398.487273 224.485375 
L 398.487273 224.485375 
" style="fill:none;stroke:#d62728;stroke-linecap:square;stroke-width:1.5;"/>
   </g>
   <g id="line2d_27">
    <path clip-path="url(#p5a0558ecc3)" d="M 73.832727 126.823038 
L 74.482036 127.026324 
L 75.131345 127.626057 
L 75.780655 128.605251 
L 76.429964 129.948562 
L 77.403927 132.606019 
L 78.377891 135.974584 
L 79.676509 141.455813 
L 80.975127 147.918932 
L 82.5984 157.110804 
L 84.870982 171.461764 
L 92.987345 224.530066 
L 94.935273 235.236972 
L 96.558545 243.068485 
L 98.181818 249.772404 
L 99.480436 254.27026 
L 100.779055 257.986517 
L 101.753018 260.253866 
L 102.726982 262.076433 
L 103.700945 263.453756 
L 104.674909 264.399924 
L 105.324218 264.799399 
L 105.973527 265.019592 
L 106.622836 265.065438 
L 107.272145 264.941875 
L 108.246109 264.452276 
L 109.220073 263.616931 
L 110.194036 262.462865 
L 111.492655 260.47709 
L 112.791273 258.041745 
L 114.414545 254.468482 
L 116.362473 249.594308 
L 119.284364 241.573723 
L 124.154182 228.164969 
L 126.426764 222.574314 
L 128.374691 218.364727 
L 129.997964 215.338277 
L 131.621236 212.796788 
L 132.919855 211.130814 
L 134.218473 209.792227 
L 135.517091 208.781894 
L 136.815709 208.095445 
L 138.114327 207.724409 
L 139.412945 207.649875 
L 140.711564 207.852934 
L 142.010182 208.313237 
L 143.3088 209.006367 
L 144.932073 210.157251 
L 146.88 211.881947 
L 149.152582 214.242167 
L 152.723782 218.34704 
L 156.944291 223.139219 
L 159.541527 225.75129 
L 161.489455 227.437482 
L 163.437382 228.848884 
L 165.385309 229.967017 
L 167.008582 230.664466 
L 168.631855 231.145333 
L 170.255127 231.419051 
L 171.8784 231.497476 
L 173.826327 231.351779 
L 175.774255 230.973361 
L 178.046836 230.28922 
L 180.644073 229.264245 
L 184.539927 227.449767 
L 190.708364 224.570149 
L 193.954909 223.330429 
L 196.552145 222.561707 
L 199.149382 222.013347 
L 201.746618 221.691606 
L 204.343855 221.587593 
L 207.265745 221.702841 
L 210.512291 222.065648 
L 214.7328 222.786706 
L 226.745018 225.003053 
L 230.640873 225.438881 
L 234.536727 225.666625 
L 238.757236 225.686769 
L 243.627055 225.476922 
L 251.094109 224.897816 
L 260.184436 224.241887 
L 266.352873 224.022856 
L 272.845964 224.018679 
L 281.936291 224.267159 
L 296.545745 224.668107 
L 306.610036 224.687031 
L 348.165818 224.46267 
L 376.086109 224.521725 
L 398.487273 224.481692 
L 398.487273 224.481692 
" style="fill:none;stroke:#9467bd;stroke-linecap:square;stroke-width:1.5;"/>
   </g>
   <g id="line2d_28">
    <path clip-path="url(#p5a0558ecc3)" d="M 73.832727 102.404692 
L 74.157382 102.468592 
L 74.806691 102.972927 
L 75.456 103.9619 
L 76.105309 105.416813 
L 77.079273 108.423716 
L 78.053236 112.346661 
L 79.0272 117.103072 
L 80.325818 124.595716 
L 81.949091 135.505671 
L 83.897018 150.310555 
L 86.818909 174.529033 
L 91.364073 212.232658 
L 93.636655 229.183356 
L 95.584582 242.001673 
L 97.207855 251.233985 
L 98.506473 257.587575 
L 99.805091 262.973727 
L 101.103709 267.36707 
L 102.077673 270.012403 
L 103.051636 272.105461 
L 104.0256 273.650835 
L 104.674909 274.380191 
L 105.324218 274.877394 
L 105.973527 275.149783 
L 106.622836 275.204698 
L 107.272145 275.049478 
L 107.921455 274.691462 
L 108.570764 274.137988 
L 109.544727 272.959771 
L 110.518691 271.392628 
L 111.817309 268.760261 
L 113.115927 265.587691 
L 114.7392 260.995584 
L 116.687127 254.792062 
L 119.933673 243.558318 
L 123.829527 230.14168 
L 126.102109 223.043456 
L 128.050036 217.650407 
L 129.673309 213.758268 
L 131.296582 210.461671 
L 132.5952 208.27177 
L 133.893818 206.491965 
L 135.192436 205.128987 
L 136.1664 204.376197 
L 137.140364 203.846386 
L 138.114327 203.532377 
L 139.088291 203.426992 
L 140.062255 203.521679 
L 141.036218 203.806419 
L 142.334836 204.459056 
L 143.633455 205.392359 
L 145.256727 206.901626 
L 146.88 208.728747 
L 149.152582 211.678221 
L 152.399127 216.333457 
L 156.944291 222.80107 
L 159.216873 225.682962 
L 161.1648 227.842122 
L 163.112727 229.669173 
L 164.736 230.913418 
L 166.359273 231.889053 
L 167.982545 232.597096 
L 169.605818 233.044087 
L 171.229091 233.23859 
L 172.852364 233.195211 
L 174.475636 232.937252 
L 176.423564 232.379045 
L 178.371491 231.592917 
L 180.968727 230.279759 
L 184.539927 228.187398 
L 190.383709 224.759054 
L 193.3056 223.322039 
L 195.902836 222.292842 
L 198.175418 221.615422 
L 200.448 221.157202 
L 202.720582 220.911094 
L 204.993164 220.867403 
L 207.5904 221.037193 
L 210.512291 221.457972 
L 214.083491 222.205245 
L 227.394327 225.238207 
L 230.965527 225.708188 
L 234.536727 225.959277 
L 238.432582 225.991848 
L 242.653091 225.79413 
L 248.496873 225.269578 
L 259.859782 224.2004 
L 265.378909 223.929416 
L 271.222691 223.87663 
L 278.040436 224.049869 
L 299.142982 224.743727 
L 308.557964 224.712376 
L 340.374109 224.402502 
L 383.228509 224.506439 
L 398.487273 224.47801 
L 398.487273 224.47801 
" style="fill:none;stroke:#8c564b;stroke-linecap:square;stroke-width:1.5;"/>
   </g>
   <g id="line2d_29">
    <path clip-path="url(#p5a0558ecc3)" d="M 73.832727 77.986346 
L 74.157382 78.063037 
L 74.482036 78.291296 
L 75.131345 79.190054 
L 75.780655 80.659865 
L 76.429964 82.675927 
L 77.403927 86.661009 
L 78.377891 91.712561 
L 79.676509 99.936418 
L 80.975127 109.629045 
L 82.5984 123.417773 
L 84.870982 144.950039 
L 92.987345 224.544884 
L 94.935273 240.615959 
L 96.558545 252.349489 
L 98.181818 262.407521 
L 99.480436 269.164682 
L 100.779055 274.73414 
L 101.753018 278.131758 
L 102.726982 280.863137 
L 103.700945 282.936816 
L 104.674909 284.355894 
L 105.324218 284.952611 
L 105.973527 285.27989 
L 106.622836 285.346332 
L 107.272145 285.160534 
L 107.921455 284.731097 
L 108.570764 284.066617 
L 109.544727 282.652553 
L 110.518691 280.771662 
L 111.817309 277.612854 
L 113.115927 273.805993 
L 114.7392 268.295463 
L 116.687127 260.851592 
L 119.933673 247.37042 
L 123.829527 231.271434 
L 126.102109 222.752367 
L 128.050036 216.281021 
L 129.673309 211.611453 
L 131.296582 207.654612 
L 132.5952 205.026352 
L 133.893818 202.890555 
L 135.192436 201.256072 
L 136.1664 200.352636 
L 137.140364 199.716435 
L 138.114327 199.339254 
L 139.088291 199.212877 
L 140.062255 199.326562 
L 141.036218 199.668603 
L 142.010182 200.222832 
L 143.3088 201.26224 
L 144.607418 202.60775 
L 146.230691 204.658354 
L 148.178618 207.542813 
L 150.775855 211.862841 
L 157.5936 223.490807 
L 159.866182 226.825089 
L 161.814109 229.288573 
L 163.437382 231.027472 
L 165.060655 232.456949 
L 166.683927 233.562676 
L 168.3072 234.349417 
L 169.605818 234.753762 
L 170.904436 234.963975 
L 172.203055 234.988179 
L 173.826327 234.778228 
L 175.4496 234.328443 
L 177.397527 233.514187 
L 179.345455 232.457417 
L 181.942691 230.778677 
L 186.812509 227.271765 
L 190.383709 224.812725 
L 192.980945 223.261681 
L 195.253527 222.130207 
L 197.526109 221.245857 
L 199.798691 220.619253 
L 202.071273 220.252031 
L 204.343855 220.133579 
L 206.616436 220.238725 
L 209.213673 220.594646 
L 212.135564 221.228123 
L 216.356073 222.409812 
L 224.472436 224.738902 
L 228.043636 225.507889 
L 231.290182 225.989261 
L 234.536727 226.251835 
L 238.107927 226.29815 
L 242.003782 226.105573 
L 246.8736 225.62019 
L 261.1584 224.040969 
L 266.352873 223.786031 
L 271.547345 223.756695 
L 278.040436 223.960561 
L 298.493673 224.785624 
L 306.934691 224.778425 
L 325.115345 224.435216 
L 337.452218 224.370489 
L 398.487273 224.474326 
L 398.487273 224.474326 
" style="fill:none;stroke:#e377c2;stroke-linecap:square;stroke-width:1.5;"/>
   </g>
   <g id="line2d_30">
    <path clip-path="url(#p5a0558ecc3)" d="M 73.832727 53.568 
L 74.157382 53.657478 
L 74.482036 53.923772 
L 75.131345 54.972029 
L 75.780655 56.687526 
L 76.429964 59.039536 
L 77.403927 63.688174 
L 78.377891 69.581671 
L 79.676509 79.176302 
L 80.975127 90.484348 
L 82.5984 106.571345 
L 84.870982 131.691625 
L 92.987345 224.553499 
L 94.935273 243.302282 
L 96.558545 256.991069 
L 98.181818 268.726059 
L 99.480436 276.609782 
L 100.779055 283.106731 
L 101.753018 287.070385 
L 102.726982 290.255819 
L 103.700945 292.676967 
L 104.350255 293.864266 
L 104.999564 294.721534 
L 105.648873 295.259008 
L 106.298182 295.486926 
L 106.947491 295.415524 
L 107.5968 295.055041 
L 108.246109 294.415714 
L 108.895418 293.507781 
L 109.869382 291.671885 
L 110.843345 289.307338 
L 112.141964 285.42149 
L 113.440582 280.809995 
L 115.063855 274.211331 
L 117.336436 263.851816 
L 126.102109 222.462161 
L 128.050036 214.911935 
L 129.673309 209.463185 
L 131.296582 204.847751 
L 132.5952 201.781794 
L 133.893818 199.29004 
L 134.867782 197.804517 
L 135.841745 196.644358 
L 136.815709 195.799605 
L 137.789673 195.2603 
L 138.763636 195.016487 
L 139.7376 195.057385 
L 140.711564 195.369016 
L 141.685527 195.935212 
L 142.659491 196.73583 
L 143.958109 198.133163 
L 145.256727 199.863688 
L 146.88 202.421664 
L 148.827927 205.930641 
L 151.749818 211.736426 
L 156.619636 221.510439 
L 158.892218 225.612187 
L 160.840145 228.707418 
L 162.463418 230.940547 
L 164.086691 232.82712 
L 165.709964 234.345145 
L 167.008582 235.286993 
L 168.3072 235.991491 
L 169.605818 236.463195 
L 170.904436 236.708542 
L 172.203055 236.736951 
L 173.501673 236.564373 
L 175.124945 236.092741 
L 176.748218 235.368854 
L 178.696145 234.222161 
L 180.968727 232.593091 
L 184.215273 229.939224 
L 190.059055 225.110573 
L 192.656291 223.26588 
L 194.928873 221.9077 
L 196.8768 220.968255 
L 198.824727 220.249289 
L 200.772655 219.75284 
L 202.720582 219.476639 
L 204.668509 219.408719 
L 206.941091 219.566074 
L 209.213673 219.944332 
L 212.135564 220.683416 
L 215.706764 221.836303 
L 224.797091 224.871639 
L 228.043636 225.676527 
L 231.290182 226.238166 
L 234.212073 226.525297 
L 237.458618 226.60891 
L 241.029818 226.453429 
L 245.250327 226.02112 
L 252.717382 224.962837 
L 259.210473 224.145512 
L 264.080291 223.764003 
L 268.950109 223.620097 
L 274.144582 223.69911 
L 281.286982 224.056073 
L 294.273164 224.733314 
L 301.415564 224.859976 
L 309.856582 224.773501 
L 335.504291 224.345095 
L 351.737018 224.474345 
L 370.891636 224.55609 
L 398.487273 224.470642 
L 398.487273 224.470642 
" style="fill:none;stroke:#7f7f7f;stroke-linecap:square;stroke-width:1.5;"/>
   </g>
   <g id="patch_3">
    <path d="M 57.6 307.584 
L 57.6 41.472 
" style="fill:none;stroke:#000000;stroke-linecap:square;stroke-linejoin:miter;stroke-width:0.8;"/>
   </g>
   <g id="patch_4">
    <path d="M 414.72 307.584 
L 414.72 41.472 
" style="fill:none;stroke:#000000;stroke-linecap:square;stroke-linejoin:miter;stroke-width:0.8;"/>
   </g>
   <g id="patch_5">
    <path d="M 57.6 307.584 
L 414.72 307.584 
" style="fill:none;stroke:#000000;stroke-linecap:square;stroke-linejoin:miter;stroke-width:0.8;"/>
   </g>
   <g id="patch_6">
    <path d="M 57.6 41.472 
L 414.72 41.472 
" style="fill:none;stroke:#000000;stroke-linecap:square;stroke-linejoin:miter;stroke-width:0.8;"/>
   </g>
   <g id="legend_1">
    <g id="patch_7">
     <path d="M 316.924688 192.772938 
L 407.72 192.772938 
Q 409.72 192.772938 409.72 190.772938 
L 409.72 48.472 
Q 409.72 46.472 407.72 46.472 
L 316.924688 46.472 
Q 314.924688 46.472 314.924688 48.472 
L 314.924688 190.772938 
Q 314.924688 192.772938 316.924688 192.772938 
z
" style="fill:#ffffff;opacity:0.8;stroke:#cccccc;stroke-linejoin:miter;"/>
    </g>
    <g id="text_14">
     <!-- Starting Distance -->
     <g transform="translate(318.924688 58.070438)scale(0.1 -0.1)">
      <defs>
       <path d="M 53.515625 70.515625 
L 53.515625 60.890625 
Q 47.90625 63.578125 42.921875 64.890625 
Q 37.9375 66.21875 33.296875 66.21875 
Q 25.25 66.21875 20.875 63.09375 
Q 16.5 59.96875 16.5 54.203125 
Q 16.5 49.359375 19.40625 46.890625 
Q 22.3125 44.4375 30.421875 42.921875 
L 36.375 41.703125 
Q 47.40625 39.59375 52.65625 34.296875 
Q 57.90625 29 57.90625 20.125 
Q 57.90625 9.515625 50.796875 4.046875 
Q 43.703125 -1.421875 29.984375 -1.421875 
Q 24.8125 -1.421875 18.96875 -0.25 
Q 13.140625 0.921875 6.890625 3.21875 
L 6.890625 13.375 
Q 12.890625 10.015625 18.65625 8.296875 
Q 24.421875 6.59375 29.984375 6.59375 
Q 38.421875 6.59375 43.015625 9.90625 
Q 47.609375 13.234375 47.609375 19.390625 
Q 47.609375 24.75 44.3125 27.78125 
Q 41.015625 30.8125 33.5 32.328125 
L 27.484375 33.5 
Q 16.453125 35.6875 11.515625 40.375 
Q 6.59375 45.0625 6.59375 53.421875 
Q 6.59375 63.09375 13.40625 68.65625 
Q 20.21875 74.21875 32.171875 74.21875 
Q 37.3125 74.21875 42.625 73.28125 
Q 47.953125 72.359375 53.515625 70.515625 
z
" id="DejaVuSans-83"/>
       <path d="M 18.3125 70.21875 
L 18.3125 54.6875 
L 36.8125 54.6875 
L 36.8125 47.703125 
L 18.3125 47.703125 
L 18.3125 18.015625 
Q 18.3125 11.328125 20.140625 9.421875 
Q 21.96875 7.515625 27.59375 7.515625 
L 36.8125 7.515625 
L 36.8125 0 
L 27.59375 0 
Q 17.1875 0 13.234375 3.875 
Q 9.28125 7.765625 9.28125 18.015625 
L 9.28125 47.703125 
L 2.6875 47.703125 
L 2.6875 54.6875 
L 9.28125 54.6875 
L 9.28125 70.21875 
z
" id="DejaVuSans-116"/>
       <path d="M 34.28125 27.484375 
Q 23.390625 27.484375 19.1875 25 
Q 14.984375 22.515625 14.984375 16.5 
Q 14.984375 11.71875 18.140625 8.90625 
Q 21.296875 6.109375 26.703125 6.109375 
Q 34.1875 6.109375 38.703125 11.40625 
Q 43.21875 16.703125 43.21875 25.484375 
L 43.21875 27.484375 
z
M 52.203125 31.203125 
L 52.203125 0 
L 43.21875 0 
L 43.21875 8.296875 
Q 40.140625 3.328125 35.546875 0.953125 
Q 30.953125 -1.421875 24.3125 -1.421875 
Q 15.921875 -1.421875 10.953125 3.296875 
Q 6 8.015625 6 15.921875 
Q 6 25.140625 12.171875 29.828125 
Q 18.359375 34.515625 30.609375 34.515625 
L 43.21875 34.515625 
L 43.21875 35.40625 
Q 43.21875 41.609375 39.140625 45 
Q 35.0625 48.390625 27.6875 48.390625 
Q 23 48.390625 18.546875 47.265625 
Q 14.109375 46.140625 10.015625 43.890625 
L 10.015625 52.203125 
Q 14.9375 54.109375 19.578125 55.046875 
Q 24.21875 56 28.609375 56 
Q 40.484375 56 46.34375 49.84375 
Q 52.203125 43.703125 52.203125 31.203125 
z
" id="DejaVuSans-97"/>
       <path d="M 41.109375 46.296875 
Q 39.59375 47.171875 37.8125 47.578125 
Q 36.03125 48 33.890625 48 
Q 26.265625 48 22.1875 43.046875 
Q 18.109375 38.09375 18.109375 28.8125 
L 18.109375 0 
L 9.078125 0 
L 9.078125 54.6875 
L 18.109375 54.6875 
L 18.109375 46.1875 
Q 20.953125 51.171875 25.484375 53.578125 
Q 30.03125 56 36.53125 56 
Q 37.453125 56 38.578125 55.875 
Q 39.703125 55.765625 41.0625 55.515625 
z
" id="DejaVuSans-114"/>
       <path d="M 54.890625 33.015625 
L 54.890625 0 
L 45.90625 0 
L 45.90625 32.71875 
Q 45.90625 40.484375 42.875 44.328125 
Q 39.84375 48.1875 33.796875 48.1875 
Q 26.515625 48.1875 22.3125 43.546875 
Q 18.109375 38.921875 18.109375 30.90625 
L 18.109375 0 
L 9.078125 0 
L 9.078125 54.6875 
L 18.109375 54.6875 
L 18.109375 46.1875 
Q 21.34375 51.125 25.703125 53.5625 
Q 30.078125 56 35.796875 56 
Q 45.21875 56 50.046875 50.171875 
Q 54.890625 44.34375 54.890625 33.015625 
z
" id="DejaVuSans-110"/>
       <path d="M 45.40625 27.984375 
Q 45.40625 37.75 41.375 43.109375 
Q 37.359375 48.484375 30.078125 48.484375 
Q 22.859375 48.484375 18.828125 43.109375 
Q 14.796875 37.75 14.796875 27.984375 
Q 14.796875 18.265625 18.828125 12.890625 
Q 22.859375 7.515625 30.078125 7.515625 
Q 37.359375 7.515625 41.375 12.890625 
Q 45.40625 18.265625 45.40625 27.984375 
z
M 54.390625 6.78125 
Q 54.390625 -7.171875 48.1875 -13.984375 
Q 42 -20.796875 29.203125 -20.796875 
Q 24.46875 -20.796875 20.265625 -20.09375 
Q 16.0625 -19.390625 12.109375 -17.921875 
L 12.109375 -9.1875 
Q 16.0625 -11.328125 19.921875 -12.34375 
Q 23.78125 -13.375 27.78125 -13.375 
Q 36.625 -13.375 41.015625 -8.765625 
Q 45.40625 -4.15625 45.40625 5.171875 
L 45.40625 9.625 
Q 42.625 4.78125 38.28125 2.390625 
Q 33.9375 0 27.875 0 
Q 17.828125 0 11.671875 7.65625 
Q 5.515625 15.328125 5.515625 27.984375 
Q 5.515625 40.671875 11.671875 48.328125 
Q 17.828125 56 27.875 56 
Q 33.9375 56 38.28125 53.609375 
Q 42.625 51.21875 45.40625 46.390625 
L 45.40625 54.6875 
L 54.390625 54.6875 
z
" id="DejaVuSans-103"/>
       <path d="M 19.671875 64.796875 
L 19.671875 8.109375 
L 31.59375 8.109375 
Q 46.6875 8.109375 53.6875 14.9375 
Q 60.6875 21.78125 60.6875 36.53125 
Q 60.6875 51.171875 53.6875 57.984375 
Q 46.6875 64.796875 31.59375 64.796875 
z
M 9.8125 72.90625 
L 30.078125 72.90625 
Q 51.265625 72.90625 61.171875 64.09375 
Q 71.09375 55.28125 71.09375 36.53125 
Q 71.09375 17.671875 61.125 8.828125 
Q 51.171875 0 30.078125 0 
L 9.8125 0 
z
" id="DejaVuSans-68"/>
       <path d="M 48.78125 52.59375 
L 48.78125 44.1875 
Q 44.96875 46.296875 41.140625 47.34375 
Q 37.3125 48.390625 33.40625 48.390625 
Q 24.65625 48.390625 19.8125 42.84375 
Q 14.984375 37.3125 14.984375 27.296875 
Q 14.984375 17.28125 19.8125 11.734375 
Q 24.65625 6.203125 33.40625 6.203125 
Q 37.3125 6.203125 41.140625 7.25 
Q 44.96875 8.296875 48.78125 10.40625 
L 48.78125 2.09375 
Q 45.015625 0.34375 40.984375 -0.53125 
Q 36.96875 -1.421875 32.421875 -1.421875 
Q 20.0625 -1.421875 12.78125 6.34375 
Q 5.515625 14.109375 5.515625 27.296875 
Q 5.515625 40.671875 12.859375 48.328125 
Q 20.21875 56 33.015625 56 
Q 37.15625 56 41.109375 55.140625 
Q 45.0625 54.296875 48.78125 52.59375 
z
" id="DejaVuSans-99"/>
      </defs>
      <use xlink:href="#DejaVuSans-83"/>
      <use x="63.476562" xlink:href="#DejaVuSans-116"/>
      <use x="102.685547" xlink:href="#DejaVuSans-97"/>
      <use x="163.964844" xlink:href="#DejaVuSans-114"/>
      <use x="205.078125" xlink:href="#DejaVuSans-116"/>
      <use x="244.287109" xlink:href="#DejaVuSans-105"/>
      <use x="272.070312" xlink:href="#DejaVuSans-110"/>
      <use x="335.449219" xlink:href="#DejaVuSans-103"/>
      <use x="398.925781" xlink:href="#DejaVuSans-32"/>
      <use x="430.712891" xlink:href="#DejaVuSans-68"/>
      <use x="507.714844" xlink:href="#DejaVuSans-105"/>
      <use x="535.498047" xlink:href="#DejaVuSans-115"/>
      <use x="587.597656" xlink:href="#DejaVuSans-116"/>
      <use x="626.806641" xlink:href="#DejaVuSans-97"/>
      <use x="688.085938" xlink:href="#DejaVuSans-110"/>
      <use x="751.464844" xlink:href="#DejaVuSans-99"/>
      <use x="806.445312" xlink:href="#DejaVuSans-101"/>
     </g>
     <!-- from Equilibrium -->
     <g transform="translate(318.924688 69.26825)scale(0.1 -0.1)">
      <defs>
       <path d="M 37.109375 75.984375 
L 37.109375 68.5 
L 28.515625 68.5 
Q 23.6875 68.5 21.796875 66.546875 
Q 19.921875 64.59375 19.921875 59.515625 
L 19.921875 54.6875 
L 34.71875 54.6875 
L 34.71875 47.703125 
L 19.921875 47.703125 
L 19.921875 0 
L 10.890625 0 
L 10.890625 47.703125 
L 2.296875 47.703125 
L 2.296875 54.6875 
L 10.890625 54.6875 
L 10.890625 58.5 
Q 10.890625 67.625 15.140625 71.796875 
Q 19.390625 75.984375 28.609375 75.984375 
z
" id="DejaVuSans-102"/>
       <path d="M 30.609375 48.390625 
Q 23.390625 48.390625 19.1875 42.75 
Q 14.984375 37.109375 14.984375 27.296875 
Q 14.984375 17.484375 19.15625 11.84375 
Q 23.34375 6.203125 30.609375 6.203125 
Q 37.796875 6.203125 41.984375 11.859375 
Q 46.1875 17.53125 46.1875 27.296875 
Q 46.1875 37.015625 41.984375 42.703125 
Q 37.796875 48.390625 30.609375 48.390625 
z
M 30.609375 56 
Q 42.328125 56 49.015625 48.375 
Q 55.71875 40.765625 55.71875 27.296875 
Q 55.71875 13.875 49.015625 6.21875 
Q 42.328125 -1.421875 30.609375 -1.421875 
Q 18.84375 -1.421875 12.171875 6.21875 
Q 5.515625 13.875 5.515625 27.296875 
Q 5.515625 40.765625 12.171875 48.375 
Q 18.84375 56 30.609375 56 
z
" id="DejaVuSans-111"/>
       <path d="M 9.8125 72.90625 
L 55.90625 72.90625 
L 55.90625 64.59375 
L 19.671875 64.59375 
L 19.671875 43.015625 
L 54.390625 43.015625 
L 54.390625 34.71875 
L 19.671875 34.71875 
L 19.671875 8.296875 
L 56.78125 8.296875 
L 56.78125 0 
L 9.8125 0 
z
" id="DejaVuSans-69"/>
       <path d="M 14.796875 27.296875 
Q 14.796875 17.390625 18.875 11.75 
Q 22.953125 6.109375 30.078125 6.109375 
Q 37.203125 6.109375 41.296875 11.75 
Q 45.40625 17.390625 45.40625 27.296875 
Q 45.40625 37.203125 41.296875 42.84375 
Q 37.203125 48.484375 30.078125 48.484375 
Q 22.953125 48.484375 18.875 42.84375 
Q 14.796875 37.203125 14.796875 27.296875 
z
M 45.40625 8.203125 
Q 42.578125 3.328125 38.25 0.953125 
Q 33.9375 -1.421875 27.875 -1.421875 
Q 17.96875 -1.421875 11.734375 6.484375 
Q 5.515625 14.40625 5.515625 27.296875 
Q 5.515625 40.1875 11.734375 48.09375 
Q 17.96875 56 27.875 56 
Q 33.9375 56 38.25 53.625 
Q 42.578125 51.265625 45.40625 46.390625 
L 45.40625 54.6875 
L 54.390625 54.6875 
L 54.390625 -20.796875 
L 45.40625 -20.796875 
z
" id="DejaVuSans-113"/>
       <path d="M 8.5 21.578125 
L 8.5 54.6875 
L 17.484375 54.6875 
L 17.484375 21.921875 
Q 17.484375 14.15625 20.5 10.265625 
Q 23.53125 6.390625 29.59375 6.390625 
Q 36.859375 6.390625 41.078125 11.03125 
Q 45.3125 15.671875 45.3125 23.6875 
L 45.3125 54.6875 
L 54.296875 54.6875 
L 54.296875 0 
L 45.3125 0 
L 45.3125 8.40625 
Q 42.046875 3.421875 37.71875 1 
Q 33.40625 -1.421875 27.6875 -1.421875 
Q 18.265625 -1.421875 13.375 4.4375 
Q 8.5 10.296875 8.5 21.578125 
z
M 31.109375 56 
z
" id="DejaVuSans-117"/>
       <path d="M 9.421875 75.984375 
L 18.40625 75.984375 
L 18.40625 0 
L 9.421875 0 
z
" id="DejaVuSans-108"/>
       <path d="M 48.6875 27.296875 
Q 48.6875 37.203125 44.609375 42.84375 
Q 40.53125 48.484375 33.40625 48.484375 
Q 26.265625 48.484375 22.1875 42.84375 
Q 18.109375 37.203125 18.109375 27.296875 
Q 18.109375 17.390625 22.1875 11.75 
Q 26.265625 6.109375 33.40625 6.109375 
Q 40.53125 6.109375 44.609375 11.75 
Q 48.6875 17.390625 48.6875 27.296875 
z
M 18.109375 46.390625 
Q 20.953125 51.265625 25.265625 53.625 
Q 29.59375 56 35.59375 56 
Q 45.5625 56 51.78125 48.09375 
Q 58.015625 40.1875 58.015625 27.296875 
Q 58.015625 14.40625 51.78125 6.484375 
Q 45.5625 -1.421875 35.59375 -1.421875 
Q 29.59375 -1.421875 25.265625 0.953125 
Q 20.953125 3.328125 18.109375 8.203125 
L 18.109375 0 
L 9.078125 0 
L 9.078125 75.984375 
L 18.109375 75.984375 
z
" id="DejaVuSans-98"/>
      </defs>
      <use xlink:href="#DejaVuSans-102"/>
      <use x="35.205078" xlink:href="#DejaVuSans-114"/>
      <use x="74.068359" xlink:href="#DejaVuSans-111"/>
      <use x="135.25" xlink:href="#DejaVuSans-109"/>
      <use x="232.662109" xlink:href="#DejaVuSans-32"/>
      <use x="264.449219" xlink:href="#DejaVuSans-69"/>
      <use x="327.632812" xlink:href="#DejaVuSans-113"/>
      <use x="391.109375" xlink:href="#DejaVuSans-117"/>
      <use x="454.488281" xlink:href="#DejaVuSans-105"/>
      <use x="482.271484" xlink:href="#DejaVuSans-108"/>
      <use x="510.054688" xlink:href="#DejaVuSans-105"/>
      <use x="537.837891" xlink:href="#DejaVuSans-98"/>
      <use x="601.314453" xlink:href="#DejaVuSans-114"/>
      <use x="642.427734" xlink:href="#DejaVuSans-105"/>
      <use x="670.210938" xlink:href="#DejaVuSans-117"/>
      <use x="733.589844" xlink:href="#DejaVuSans-109"/>
     </g>
    </g>
    <g id="line2d_31">
     <path d="M 331.162188 80.446375 
L 351.162188 80.446375 
" style="fill:none;stroke:#1f77b4;stroke-linecap:square;stroke-width:1.5;"/>
    </g>
    <g id="line2d_32"/>
    <g id="text_15">
     <!-- 0.0 cm -->
     <g transform="translate(359.162188 83.946375)scale(0.1 -0.1)">
      <use xlink:href="#DejaVuSans-48"/>
      <use x="63.623047" xlink:href="#DejaVuSans-46"/>
      <use x="95.410156" xlink:href="#DejaVuSans-48"/>
      <use x="159.033203" xlink:href="#DejaVuSans-32"/>
      <use x="190.820312" xlink:href="#DejaVuSans-99"/>
      <use x="245.800781" xlink:href="#DejaVuSans-109"/>
     </g>
    </g>
    <g id="line2d_33">
     <path d="M 331.162188 95.1245 
L 351.162188 95.1245 
" style="fill:none;stroke:#ff7f0e;stroke-linecap:square;stroke-width:1.5;"/>
    </g>
    <g id="line2d_34"/>
    <g id="text_16">
     <!-- 0.5 cm -->
     <g transform="translate(359.162188 98.6245)scale(0.1 -0.1)">
      <defs>
       <path d="M 10.796875 72.90625 
L 49.515625 72.90625 
L 49.515625 64.59375 
L 19.828125 64.59375 
L 19.828125 46.734375 
Q 21.96875 47.46875 24.109375 47.828125 
Q 26.265625 48.1875 28.421875 48.1875 
Q 40.625 48.1875 47.75 41.5 
Q 54.890625 34.8125 54.890625 23.390625 
Q 54.890625 11.625 47.5625 5.09375 
Q 40.234375 -1.421875 26.90625 -1.421875 
Q 22.3125 -1.421875 17.546875 -0.640625 
Q 12.796875 0.140625 7.71875 1.703125 
L 7.71875 11.625 
Q 12.109375 9.234375 16.796875 8.0625 
Q 21.484375 6.890625 26.703125 6.890625 
Q 35.15625 6.890625 40.078125 11.328125 
Q 45.015625 15.765625 45.015625 23.390625 
Q 45.015625 31 40.078125 35.4375 
Q 35.15625 39.890625 26.703125 39.890625 
Q 22.75 39.890625 18.8125 39.015625 
Q 14.890625 38.140625 10.796875 36.28125 
z
" id="DejaVuSans-53"/>
      </defs>
      <use xlink:href="#DejaVuSans-48"/>
      <use x="63.623047" xlink:href="#DejaVuSans-46"/>
      <use x="95.410156" xlink:href="#DejaVuSans-53"/>
      <use x="159.033203" xlink:href="#DejaVuSans-32"/>
      <use x="190.820312" xlink:href="#DejaVuSans-99"/>
      <use x="245.800781" xlink:href="#DejaVuSans-109"/>
     </g>
    </g>
    <g id="line2d_35">
     <path d="M 331.162188 109.802625 
L 351.162188 109.802625 
" style="fill:none;stroke:#2ca02c;stroke-linecap:square;stroke-width:1.5;"/>
    </g>
    <g id="line2d_36"/>
    <g id="text_17">
     <!-- 1.0 cm -->
     <g transform="translate(359.162188 113.302625)scale(0.1 -0.1)">
      <use xlink:href="#DejaVuSans-49"/>
      <use x="63.623047" xlink:href="#DejaVuSans-46"/>
      <use x="95.410156" xlink:href="#DejaVuSans-48"/>
      <use x="159.033203" xlink:href="#DejaVuSans-32"/>
      <use x="190.820312" xlink:href="#DejaVuSans-99"/>
      <use x="245.800781" xlink:href="#DejaVuSans-109"/>
     </g>
    </g>
    <g id="line2d_37">
     <path d="M 331.162188 124.48075 
L 351.162188 124.48075 
" style="fill:none;stroke:#d62728;stroke-linecap:square;stroke-width:1.5;"/>
    </g>
    <g id="line2d_38"/>
    <g id="text_18">
     <!-- 1.5 cm -->
     <g transform="translate(359.162188 127.98075)scale(0.1 -0.1)">
      <use xlink:href="#DejaVuSans-49"/>
      <use x="63.623047" xlink:href="#DejaVuSans-46"/>
      <use x="95.410156" xlink:href="#DejaVuSans-53"/>
      <use x="159.033203" xlink:href="#DejaVuSans-32"/>
      <use x="190.820312" xlink:href="#DejaVuSans-99"/>
      <use x="245.800781" xlink:href="#DejaVuSans-109"/>
     </g>
    </g>
    <g id="line2d_39">
     <path d="M 331.162188 139.158875 
L 351.162188 139.158875 
" style="fill:none;stroke:#9467bd;stroke-linecap:square;stroke-width:1.5;"/>
    </g>
    <g id="line2d_40"/>
    <g id="text_19">
     <!-- 2.0 cm -->
     <g transform="translate(359.162188 142.658875)scale(0.1 -0.1)">
      <use xlink:href="#DejaVuSans-50"/>
      <use x="63.623047" xlink:href="#DejaVuSans-46"/>
      <use x="95.410156" xlink:href="#DejaVuSans-48"/>
      <use x="159.033203" xlink:href="#DejaVuSans-32"/>
      <use x="190.820312" xlink:href="#DejaVuSans-99"/>
      <use x="245.800781" xlink:href="#DejaVuSans-109"/>
     </g>
    </g>
    <g id="line2d_41">
     <path d="M 331.162188 153.837 
L 351.162188 153.837 
" style="fill:none;stroke:#8c564b;stroke-linecap:square;stroke-width:1.5;"/>
    </g>
    <g id="line2d_42"/>
    <g id="text_20">
     <!-- 2.5 cm -->
     <g transform="translate(359.162188 157.337)scale(0.1 -0.1)">
      <use xlink:href="#DejaVuSans-50"/>
      <use x="63.623047" xlink:href="#DejaVuSans-46"/>
      <use x="95.410156" xlink:href="#DejaVuSans-53"/>
      <use x="159.033203" xlink:href="#DejaVuSans-32"/>
      <use x="190.820312" xlink:href="#DejaVuSans-99"/>
      <use x="245.800781" xlink:href="#DejaVuSans-109"/>
     </g>
    </g>
    <g id="line2d_43">
     <path d="M 331.162188 168.515125 
L 351.162188 168.515125 
" style="fill:none;stroke:#e377c2;stroke-linecap:square;stroke-width:1.5;"/>
    </g>
    <g id="line2d_44"/>
    <g id="text_21">
     <!-- 3.0 cm -->
     <g transform="translate(359.162188 172.015125)scale(0.1 -0.1)">
      <use xlink:href="#DejaVuSans-51"/>
      <use x="63.623047" xlink:href="#DejaVuSans-46"/>
      <use x="95.410156" xlink:href="#DejaVuSans-48"/>
      <use x="159.033203" xlink:href="#DejaVuSans-32"/>
      <use x="190.820312" xlink:href="#DejaVuSans-99"/>
      <use x="245.800781" xlink:href="#DejaVuSans-109"/>
     </g>
    </g>
    <g id="line2d_45">
     <path d="M 331.162188 183.19325 
L 351.162188 183.19325 
" style="fill:none;stroke:#7f7f7f;stroke-linecap:square;stroke-width:1.5;"/>
    </g>
    <g id="line2d_46"/>
    <g id="text_22">
     <!-- 3.5 cm -->
     <g transform="translate(359.162188 186.69325)scale(0.1 -0.1)">
      <use xlink:href="#DejaVuSans-51"/>
      <use x="63.623047" xlink:href="#DejaVuSans-46"/>
      <use x="95.410156" xlink:href="#DejaVuSans-53"/>
      <use x="159.033203" xlink:href="#DejaVuSans-32"/>
      <use x="190.820312" xlink:href="#DejaVuSans-99"/>
      <use x="245.800781" xlink:href="#DejaVuSans-109"/>
     </g>
    </g>
   </g>
  </g>
 </g>
 <defs>
  <clipPath id="p5a0558ecc3">
   <rect height="266.112" width="357.12" x="57.6" y="41.472"/>
  </clipPath>
 </defs>
</svg>
